<svg xmlns="http://www.w3.org/2000/svg" xmlns:xlink="http://www.w3.org/1999/xlink" width="500" zoomAndPan="magnify" viewBox="0 0 375 374.999991" height="500" preserveAspectRatio="xMidYMid meet" version="1.0"><defs><g/></defs><g fill="rgb(100%, 100%, 100%)" fill-opacity="1"><g transform="translate(81.295898, 198.749987)"><g><path d="M 7.402344 -18.554688 C 7.558594 -20.003906 9.007812 -20.570312 11.054688 -20.191406 L 11.054688 -23.53125 C 10.488281 -23.65625 9.828125 -23.75 9.167969 -23.75 C 4.628906 -23.75 2.710938 -21.957031 2.457031 -18.996094 C 2.425781 -18.425781 2.425781 -17.640625 2.425781 -17.105469 L 2.425781 -16.664062 L 0.628906 -16.664062 L 0.628906 -13.511719 L 2.425781 -13.511719 L 2.425781 0 L 7.339844 0 L 7.339844 -13.511719 L 10.773438 -13.511719 L 10.773438 -16.664062 L 7.339844 -16.664062 L 7.339844 -17.167969 C 7.339844 -17.609375 7.339844 -18.113281 7.402344 -18.554688 Z M 7.402344 -18.554688 "/></g></g></g><g fill="rgb(100%, 100%, 100%)" fill-opacity="1"><g transform="translate(92.509917, 198.749987)"><g><path d="M 6.679688 -23.152344 L 1.734375 -23.152344 L 1.734375 -5.636719 C 1.734375 -4.472656 1.734375 -3.652344 1.796875 -2.835938 C 1.921875 -0.628906 3.308594 0.285156 5.671875 0.285156 C 6.773438 0.285156 7.6875 0.21875 8.632812 0.125 L 8.632812 -3.246094 C 7.152344 -3.179688 6.804688 -3.433594 6.710938 -4.191406 C 6.679688 -4.628906 6.679688 -5.007812 6.679688 -5.734375 Z M 6.679688 -23.152344 "/></g></g></g><g fill="rgb(100%, 100%, 100%)" fill-opacity="1"><g transform="translate(101.676428, 198.749987)"><g><path d="M 17.640625 -8.695312 C 17.640625 -13.167969 14.867188 -17.230469 9.511719 -17.230469 C 4.191406 -17.230469 0.820312 -13.386719 0.820312 -8.347656 C 0.820312 -2.425781 4.503906 0.441406 9.199219 0.441406 C 13.292969 0.441406 16.441406 -1.605469 17.355469 -5.480469 L 12.472656 -5.480469 C 12.191406 -3.90625 11.023438 -2.960938 9.292969 -2.960938 C 7.433594 -2.960938 6.046875 -3.90625 5.765625 -7.117188 L 17.546875 -7.117188 C 17.609375 -7.71875 17.640625 -8.253906 17.640625 -8.695312 Z M 9.292969 -13.828125 C 11.121094 -13.828125 12.222656 -12.601562 12.503906 -10.238281 L 5.890625 -10.238281 C 6.300781 -12.726562 7.527344 -13.828125 9.292969 -13.828125 Z M 9.292969 -13.828125 "/></g></g></g><g fill="rgb(100%, 100%, 100%)" fill-opacity="1"><g transform="translate(120.198449, 198.749987)"><g><path d="M 17.640625 -8.695312 C 17.640625 -13.167969 14.867188 -17.230469 9.511719 -17.230469 C 4.191406 -17.230469 0.820312 -13.386719 0.820312 -8.347656 C 0.820312 -2.425781 4.503906 0.441406 9.199219 0.441406 C 13.292969 0.441406 16.441406 -1.605469 17.355469 -5.480469 L 12.472656 -5.480469 C 12.191406 -3.90625 11.023438 -2.960938 9.292969 -2.960938 C 7.433594 -2.960938 6.046875 -3.90625 5.765625 -7.117188 L 17.546875 -7.117188 C 17.609375 -7.71875 17.640625 -8.253906 17.640625 -8.695312 Z M 9.292969 -13.828125 C 11.121094 -13.828125 12.222656 -12.601562 12.503906 -10.238281 L 5.890625 -10.238281 C 6.300781 -12.726562 7.527344 -13.828125 9.292969 -13.828125 Z M 9.292969 -13.828125 "/></g></g></g><g fill="rgb(100%, 100%, 100%)" fill-opacity="1"><g transform="translate(138.72047, 198.749987)"><g><path d="M 8.09375 -6.425781 L 12.976562 0 L 19.121094 0 L 11.75 -9.039062 L 19.027344 -16.789062 L 13.167969 -16.789062 L 6.804688 -9.417969 L 6.804688 -23.152344 L 1.859375 -23.152344 L 1.859375 0 L 6.804688 0 L 6.804688 -5.007812 Z M 8.09375 -6.425781 "/></g></g></g><g fill="rgb(100%, 100%, 100%)" fill-opacity="1"><g transform="translate(157.777994, 198.749987)"><g><path d="M 4.09375 -5.292969 C 2.425781 -5.292969 1.226562 -4.125 1.226562 -2.425781 C 1.226562 -0.757812 2.425781 0.441406 4.09375 0.441406 C 5.796875 0.441406 6.960938 -0.757812 6.960938 -2.425781 C 6.960938 -4.125 5.796875 -5.292969 4.09375 -5.292969 Z M 4.09375 -5.292969 "/></g></g></g><g fill="rgb(100%, 100%, 100%)" fill-opacity="1"><g transform="translate(165.810499, 198.749987)"><g><path d="M 18.050781 -12.601562 C 17.671875 -15.53125 15.625 -17.230469 12.097656 -17.230469 C 10.519531 -17.230469 9.324219 -16.914062 8.191406 -16.160156 L 6.804688 -14.144531 L 6.804688 -16.789062 L 1.859375 -16.789062 L 1.859375 0 L 6.804688 0 L 6.804688 -7.78125 C 6.804688 -12.066406 8.253906 -13.828125 10.207031 -13.828125 C 12.128906 -13.828125 13.074219 -12.757812 13.199219 -11.054688 C 13.261719 -10.207031 13.261719 -9.355469 13.261719 -8.726562 L 13.261719 0 L 18.207031 0 L 18.207031 -9.480469 C 18.207031 -10.835938 18.175781 -11.75 18.050781 -12.601562 Z M 18.050781 -12.601562 "/></g></g></g><g fill="rgb(100%, 100%, 100%)" fill-opacity="1"><g transform="translate(185.687019, 198.749987)"><g><path d="M 17.640625 -8.695312 C 17.640625 -13.167969 14.867188 -17.230469 9.511719 -17.230469 C 4.191406 -17.230469 0.820312 -13.386719 0.820312 -8.347656 C 0.820312 -2.425781 4.503906 0.441406 9.199219 0.441406 C 13.292969 0.441406 16.441406 -1.605469 17.355469 -5.480469 L 12.472656 -5.480469 C 12.191406 -3.90625 11.023438 -2.960938 9.292969 -2.960938 C 7.433594 -2.960938 6.046875 -3.90625 5.765625 -7.117188 L 17.546875 -7.117188 C 17.609375 -7.71875 17.640625 -8.253906 17.640625 -8.695312 Z M 9.292969 -13.828125 C 11.121094 -13.828125 12.222656 -12.601562 12.503906 -10.238281 L 5.890625 -10.238281 C 6.300781 -12.726562 7.527344 -13.828125 9.292969 -13.828125 Z M 9.292969 -13.828125 "/></g></g></g><g fill="rgb(100%, 100%, 100%)" fill-opacity="1"><g transform="translate(204.209041, 198.749987)"><g><path d="M 7.78125 -13.511719 L 11.339844 -13.511719 L 11.339844 -16.664062 L 7.78125 -16.664062 L 7.78125 -20.882812 L 2.835938 -20.882812 L 2.835938 -16.664062 L 0.285156 -16.664062 L 0.285156 -13.511719 L 2.835938 -13.511719 L 2.835938 -5.796875 C 2.835938 -4.851562 2.835938 -4.09375 2.898438 -3.246094 C 3.085938 -0.789062 4.285156 0.410156 7.96875 0.410156 C 9.039062 0.410156 10.015625 0.316406 11.023438 0.15625 L 11.023438 -2.992188 C 8.503906 -2.835938 7.9375 -3.214844 7.8125 -4.882812 C 7.78125 -5.324219 7.78125 -5.890625 7.78125 -6.457031 Z M 7.78125 -13.511719 "/></g></g></g><g fill="rgb(100%, 100%, 100%)" fill-opacity="1"><g transform="translate(216.116057, 198.749987)"><g><path d="M 26.839844 -16.789062 L 21.515625 -16.789062 L 18.964844 -4.09375 L 16.410156 -16.695312 L 10.519531 -16.695312 L 8.09375 -4.125 L 5.480469 -16.789062 L 0 -16.789062 L 5.324219 0 L 10.898438 0 L 13.449219 -12.191406 L 15.96875 0 L 21.515625 0 Z M 26.839844 -16.789062 "/></g></g></g><g fill="rgb(100%, 100%, 100%)" fill-opacity="1"><g transform="translate(242.796593, 198.749987)"><g><path d="M 9.671875 -17.230469 C 4.09375 -17.230469 0.820312 -13.640625 0.820312 -8.410156 C 0.820312 -3.179688 4.09375 0.441406 9.671875 0.441406 C 15.214844 0.441406 18.523438 -3.179688 18.523438 -8.410156 C 18.523438 -13.640625 15.214844 -17.230469 9.671875 -17.230469 Z M 9.671875 -2.960938 C 7.308594 -2.960938 5.890625 -4.914062 5.890625 -8.410156 C 5.890625 -11.90625 7.308594 -13.828125 9.671875 -13.828125 C 12 -13.828125 13.417969 -11.90625 13.417969 -8.410156 C 13.417969 -4.914062 12 -2.960938 9.671875 -2.960938 Z M 9.671875 -2.960938 "/></g></g></g><g fill="rgb(100%, 100%, 100%)" fill-opacity="1"><g transform="translate(262.106117, 198.749987)"><g><path d="M 11.121094 -17.230469 C 10.144531 -17.230469 8.914062 -16.789062 8.0625 -15.90625 L 6.804688 -13.578125 L 6.804688 -16.789062 L 1.859375 -16.789062 L 1.859375 0 L 6.804688 0 L 6.804688 -7.023438 C 6.804688 -11.78125 8.472656 -13.355469 12.378906 -13.105469 L 12.378906 -17.105469 C 12 -17.167969 11.65625 -17.230469 11.121094 -17.230469 Z M 11.121094 -17.230469 "/></g></g></g><g fill="rgb(100%, 100%, 100%)" fill-opacity="1"><g transform="translate(274.64313, 198.749987)"><g><path d="M 8.09375 -6.425781 L 12.976562 0 L 19.121094 0 L 11.75 -9.039062 L 19.027344 -16.789062 L 13.167969 -16.789062 L 6.804688 -9.417969 L 6.804688 -23.152344 L 1.859375 -23.152344 L 1.859375 0 L 6.804688 0 L 6.804688 -5.007812 Z M 8.09375 -6.425781 "/></g></g></g></svg>